<?xml version="1.0" encoding="UTF-8" standalone="no"?>
<!-- Created with Inkscape (http://www.inkscape.org/) -->

<svg
   xmlns:dc="http://purl.org/dc/elements/1.1/"
   xmlns:cc="http://creativecommons.org/ns#"
   xmlns:rdf="http://www.w3.org/1999/02/22-rdf-syntax-ns#"
   xmlns:svg="http://www.w3.org/2000/svg"
   xmlns="http://www.w3.org/2000/svg"
   xmlns:sodipodi="http://sodipodi.sourceforge.net/DTD/sodipodi-0.dtd"
   xmlns:inkscape="http://www.inkscape.org/namespaces/inkscape"
   width="744.09448819"
   height="1052.3622047"
   id="svg2"
   version="1.1"
   inkscape:version="0.48.1 "
   sodipodi:docname="Block Diagram.svg">
  <defs
     id="defs4">
    <inkscape:path-effect
       effect="spiro"
       id="path-effect3015"
       is_visible="true" />
    <inkscape:path-effect
       effect="spiro"
       id="path-effect3011"
       is_visible="true" />
    <inkscape:path-effect
       effect="spiro"
       id="path-effect3003"
       is_visible="true" />
  </defs>
  <sodipodi:namedview
     id="base"
     pagecolor="#ffffff"
     bordercolor="#666666"
     borderopacity="1.0"
     inkscape:pageopacity="0.0"
     inkscape:pageshadow="2"
     inkscape:zoom="0.35"
     inkscape:cx="375"
     inkscape:cy="520"
     inkscape:document-units="px"
     inkscape:current-layer="layer1"
     showgrid="false"
     inkscape:window-width="1366"
     inkscape:window-height="706"
     inkscape:window-x="-8"
     inkscape:window-y="-8"
     inkscape:window-maximized="1" />
  <metadata
     id="metadata7">
    <rdf:RDF>
      <cc:Work
         rdf:about="">
        <dc:format>image/svg+xml</dc:format>
        <dc:type
           rdf:resource="http://purl.org/dc/dcmitype/StillImage" />
        <dc:title></dc:title>
      </cc:Work>
    </rdf:RDF>
  </metadata>
  <g
     inkscape:label="Layer 1"
     inkscape:groupmode="layer"
     id="layer1">
    <rect
       style="fill:#008000;fill-opacity:1;stroke:#000000;stroke-width:2;stroke-miterlimit:4;stroke-opacity:1;stroke-dasharray:none"
       id="rect2985"
       width="200"
       height="191.42857"
       x="608.57141"
       y="369.50504" />
    <rect
       style="fill:#008000;fill-opacity:1;stroke:#000000;stroke-width:2;stroke-miterlimit:4;stroke-opacity:1;stroke-dasharray:none"
       id="rect2987"
       width="162.85715"
       height="102.85714"
       x="400"
       y="378.07648" />
    <rect
       style="fill:#008000;fill-opacity:1;stroke:#000000;stroke-width:2;stroke-miterlimit:4;stroke-opacity:1;stroke-dasharray:none"
       id="rect2989"
       width="148.57143"
       height="102.85714"
       x="200"
       y="378.07648" />
    <rect
       style="fill:#008000;fill-opacity:1;stroke:#000000;stroke-width:2;stroke-miterlimit:4;stroke-opacity:1;stroke-dasharray:none"
       id="rect2991"
       width="260"
       height="537.14288"
       x="-122.85714"
       y="352.36218" />
    <rect
       style="fill:#008000;fill-opacity:1;stroke:#000000;stroke-width:2;stroke-miterlimit:4;stroke-opacity:1;stroke-dasharray:none"
       id="rect2993"
       width="128.57143"
       height="120"
       x="-377.14282"
       y="698.07648" />
    <rect
       style="fill:#008000;fill-opacity:1;stroke:#000000;stroke-width:2;stroke-miterlimit:4;stroke-opacity:1;stroke-dasharray:none"
       id="rect2995"
       width="140"
       height="105.71429"
       x="-602.85712"
       y="720.93359" />
    <path
       style="fill:none;stroke:#000000;stroke-width:1px;stroke-linecap:butt;stroke-linejoin:miter;stroke-opacity:1"
       d="m -514.28572,832.36218 c -10.7065,13.28045 -14.28115,31.98948 -9.22497,48.28164 5.05619,16.29216 18.59508,29.6901 34.93926,34.57551 16.56865,4.95251 34.66307,1.47572 51.42857,5.71428 8.83605,2.23388 17.05833,6.5571 25.95721,8.52587 4.44943,0.98439 9.0851,1.36421 13.56994,0.55627 4.48483,-0.80795 8.82003,-2.86768 11.90142,-6.22499 3.72903,-4.06294 5.36851,-9.81074 4.9267,-15.30782 -0.44181,-5.49709 -2.84067,-10.72908 -6.25627,-15.05884 -6.83118,-8.65953 -17.22843,-13.58052 -27.24186,-18.20477 -8.61873,-3.98017 -17.49317,-8.02634 -26.97001,-8.58653 -4.73842,-0.2801 -9.57588,0.34845 -13.93323,2.23115 -4.35736,1.88269 -8.21088,5.06832 -10.52533,9.21252 -1.92302,3.44332 -2.73791,7.44783 -2.63047,11.39028 0.10743,3.94245 1.11042,7.82764 2.63047,11.46686 5.0333,12.05047 15.63466,21.19667 27.55288,26.53556 11.91823,5.3389 25.11365,7.19881 38.16141,7.75016 10.55619,0.44607 21.27199,0.0542 31.42857,-2.85715 11.9304,-3.41984 22.83366,-10.3432 31.00293,-19.68627 8.16927,-9.34307 13.57561,-21.07275 15.3727,-33.35283 1.79708,-12.28008 -0.0214,-25.06706 -5.17093,-36.35922 -5.14948,-11.29215 -13.61166,-21.04948 -24.06184,-27.74453"
       id="path3013"
       inkscape:path-effect="#path-effect3015"
       inkscape:original-d="m -514.28572,832.36218 c 0.6406,31.06645 -6.30205,72.18503 25.71429,82.85715 15.73895,5.24632 35.40384,1.7081 51.42857,5.71428 6.1253,1.53133 45.37166,8.91406 51.42857,2.85715 7.4919,-7.4919 -26.56642,-47.56893 -28.57143,-48.57143 -9.06407,-4.53204 -45.62719,-14.547 -51.42857,2.85714 -1.92883,5.78648 0,16.92351 0,22.85714 0,40.99803 32.37515,34.28572 65.71429,34.28572 8.36012,0 24.44575,1.79807 31.42857,-2.85715 26.61926,-17.74617 17.14286,-83.34292 17.14286,-117.14285"
       inkscape:connector-curvature="0" />
  </g>
</svg>
